{
	"asset":{
		"generator":"Khronos glTF Blender I/O v4.0.44",
		"version":"2.0"
	},
	"scene":0,
	"scenes":[
		{
			"name":"Scene",
			"nodes":[
				0
			]
		}
	],
	"nodes":[
		{
			"mesh":0,
			"name":"Curve",
			"rotation":[
				0.5,
				-0.5,
				0.5,
				0.5
			],
			"scale":[
				1,
				0.5,
				1
			]
		}
	],
	"materials":[
		{
			"doubleSided":true,
			"name":"SVGMat.001",
			"pbrMetallicRoughness":{
				"baseColorFactor":[
					0,
					0,
					0,
					1
				],
				"metallicFactor":0,
				"roughnessFactor":0.4000000059604645
			}
		}
	],
	"meshes":[
		{
			"name":"Curve",
			"primitives":[
				{
					"attributes":{
						"POSITION":0,
						"NORMAL":1,
						"TEXCOORD_0":2
					},
					"indices":3,
					"material":0
				}
			]
		}
	],
	"accessors":[
		{
			"bufferView":0,
			"componentType":5126,
			"count":17387,
			"max":[
				0.07839810103178024,
				0.004500000271946192,
				-0.0172914806753397
			],
			"min":[
				0.008853294886648655,
				-0.004500000271946192,
				-0.06989563256502151
			],
			"type":"VEC3"
		},
		{
			"bufferView":1,
			"componentType":5126,
			"count":17387,
			"type":"VEC3"
		},
		{
			"bufferView":2,
			"componentType":5126,
			"count":17387,
			"type":"VEC2"
		},
		{
			"bufferView":3,
			"componentType":5123,
			"count":88992,
			"type":"SCALAR"
		}
	],
	"bufferViews":[
		{
			"buffer":0,
			"byteLength":208644,
			"byteOffset":0,
			"target":34962
		},
		{
			"buffer":0,
			"byteLength":208644,
			"byteOffset":208644,
			"target":34962
		},
		{
			"buffer":0,
			"byteLength":139096,
			"byteOffset":417288,
			"target":34962
		},
		{
			"buffer":0,
			"byteLength":177984,
			"byteOffset":556384,
			"target":34963
		}
	],
	"buffers":[
		{
			"byteLength":734368,
			"uri":"logov2.bin"
		}
	]
}
